<svg width="18" height="25" viewBox="0 0 18 25" fill="none" xmlns="http://www.w3.org/2000/svg">
<path d="M12.8011 3.96573L11.8628 2.96872L11.8609 2.96602C11.8581 2.96195 11.854 2.95616 11.8487 2.94888C11.838 2.93434 11.8222 2.91386 11.8013 2.88942C11.7597 2.84059 11.6976 2.77569 11.6155 2.71078C11.4513 2.58095 11.2053 2.45 10.8824 2.45H10.461C10.4362 1.61973 9.79431 0.95 9 0.95C8.20616 0.95 7.56386 1.61972 7.53898 2.45H7.11765C6.81598 2.45 6.57021 2.58142 6.40158 2.71027C6.31706 2.77486 6.2511 2.83941 6.20618 2.8879C6.1837 2.91217 6.16642 2.93249 6.15466 2.94688C6.14878 2.95408 6.14428 2.9598 6.14119 2.9638L6.13818 2.96773L5.19888 3.96573C4.99951 4.17756 4.77131 4.29894 4.59243 4.36736C4.50307 4.40154 4.42635 4.42238 4.37223 4.43463C4.34518 4.44076 4.32382 4.44473 4.3094 4.44715L4.29314 4.44969L4.29077 4.45001C4.00166 4.45192 3.77353 4.70047 3.77353 5C3.77353 5.30068 4.00342 5.55 4.29412 5.55H13.7059C13.9966 5.55 14.2265 5.30068 14.2265 5C14.2265 4.70047 13.9983 4.45192 13.7092 4.45001L13.7069 4.44969L13.6906 4.44715C13.6762 4.44473 13.6548 4.44076 13.6278 4.43463C13.5736 4.42238 13.4969 4.40154 13.4076 4.36736C13.2287 4.29894 13.0005 4.17756 12.8011 3.96573ZM11.4816 4.02692L11.4812 4.02719L11.4858 4.03252L11.8433 4.45H6.15705L6.51423 4.0325L6.5146 4.03282L6.51836 4.02694L6.51836 4.02693L6.51837 4.02692L6.51838 4.0269L6.51846 4.02679L6.51898 4.02597L6.52141 4.02233L6.53167 4.00759C6.54088 3.9947 6.55479 3.97603 6.57319 3.95351C6.61004 3.9084 6.66461 3.8482 6.73524 3.78807C6.8769 3.66746 7.07967 3.55 7.33176 3.55H10.6687C10.9203 3.55 11.123 3.66745 11.2646 3.78807C11.3353 3.8482 11.3899 3.90841 11.4268 3.95352C11.4452 3.97605 11.4591 3.99472 11.4683 4.00761L11.4786 4.02235L11.481 4.026L11.4816 4.02681L11.4816 4.02692ZM2.88235 24.05H15.1176C16.1876 24.05 17.05 23.1292 17.05 22V4.5C17.05 3.37078 16.1876 2.45 15.1176 2.45H13.7064H13.7063H13.7063H13.7063H13.7063H13.7063H13.7063H13.7063H13.7063H13.7063H13.7063H13.7063H13.7063H13.7062H13.7062H13.7062H13.7062H13.7062H13.7062H13.7062H13.7062H13.7062H13.7062H13.7062H13.7062H13.7062H13.7061H13.7061H13.7061H13.7061H13.7061H13.7061H13.7061H13.7061H13.7061H13.7061H13.7061H13.7061H13.706H13.706H13.706H13.706H13.706H13.706H13.706H13.706H13.706H13.706H13.706H13.706H13.706H13.7059H13.7059H13.7059H13.7059H13.7059H13.7059H13.7059H13.7059H13.7059C13.4152 2.45 13.1853 2.69932 13.1853 3C13.1853 3.30068 13.4152 3.55 13.7059 3.55H15.1176C15.6067 3.55 16.0088 3.97272 16.0088 4.5V22C16.0088 22.5273 15.6067 22.95 15.1176 22.95H2.88235C2.39325 22.95 1.99118 22.5273 1.99118 22V4.5C1.99118 3.97272 2.39325 3.55 2.88235 3.55H4.29412C4.58481 3.55 4.81471 3.30068 4.81471 3C4.81471 2.69932 4.58481 2.45 4.29412 2.45H2.88235C1.8124 2.45 0.95 3.37078 0.95 4.5V22C0.95 23.1292 1.8124 24.05 2.88235 24.05ZM9.41804 2.45H8.58196C8.60528 2.22283 8.78569 2.05 9 2.05C9.21431 2.05 9.39472 2.22283 9.41804 2.45Z" fill="#740F13" stroke="#740F13" stroke-width="0.1"/>
</svg>
