<svg width="22" height="22" viewBox="0 0 22 22" fill="none" xmlns="http://www.w3.org/2000/svg">
<path d="M20.9334 9.8889C20.978 10.2576 21.0003 10.6286 21 11C21 12.9778 20.4135 14.9112 19.3147 16.5557C18.2159 18.2002 16.6541 19.4819 14.8268 20.2388C12.9996 20.9957 10.9889 21.1937 9.04911 20.8079C7.1093 20.422 5.32746 19.4696 3.92894 18.0711C2.53041 16.6726 1.578 14.8907 1.19215 12.9509C0.806299 11.0111 1.00433 9.00043 1.76121 7.17317C2.51809 5.34591 3.79981 3.78412 5.44431 2.68531C7.0888 1.58649 9.0222 1 11 1C12.5484 1.01445 14.0714 1.3952 15.4445 2.11111" stroke="#740F13" stroke-width="1.5" stroke-linecap="round" stroke-linejoin="round"/>
<path d="M20.9991 3.22217L10.9991 13.2222L6.55469 8.77773" stroke="#740F13" stroke-width="1.5" stroke-linecap="round" stroke-linejoin="round"/>
</svg>
