<svg width="11" height="6" viewBox="0 0 11 6" fill="none" xmlns="http://www.w3.org/2000/svg">
<path d="M9.95663 0.161776L5.44758 4.67191L0.938535 0.161233C0.723558 -0.0537443 0.375803 -0.0537443 0.160826 0.161233C-0.0536086 0.37621 -0.0536086 0.724508 0.160826 0.939485L5.05848 5.83877C5.27291 6.05374 5.62121 6.05374 5.83564 5.83877L10.7333 0.93953C10.9477 0.724553 10.9477 0.375713 10.7333 0.160735C10.5194 -0.0532013 10.1711 -0.0532014 9.95663 0.161776Z" fill="#7B7B7B"/>
<path d="M9.95663 0.161776L5.44758 4.67191L0.938535 0.161233C0.723558 -0.0537443 0.375803 -0.0537443 0.160826 0.161233C-0.0536086 0.37621 -0.0536086 0.724508 0.160826 0.939485L5.05848 5.83877C5.27291 6.05374 5.62121 6.05374 5.83564 5.83877L10.7333 0.93953C10.9477 0.724553 10.9477 0.375713 10.7333 0.160735C10.5194 -0.0532013 10.1711 -0.0532014 9.95663 0.161776Z" stroke="#7B7B7B"/>
</svg>
