<svg width="13" height="13" viewBox="0 0 13 13" fill="none" xmlns="http://www.w3.org/2000/svg">
<g id="Group">
<g id="Group_2">
<path id="Vector" d="M12.4957 0.504566L12.4957 0.504578C12.9018 0.910681 12.9018 1.56905 12.4957 1.97515L8.11215 6.35873L7.97073 6.50015L8.11215 6.64157L12.4956 11.0252C12.9018 11.4313 12.9018 12.0896 12.4957 12.4957L12.4956 12.4958C12.2926 12.6989 12.0268 12.8004 11.7603 12.8004C11.494 12.8004 11.2282 12.6988 11.0251 12.4957L6.64149 8.11215L6.50007 7.97073L6.35865 8.11215L1.97507 12.4957L1.97502 12.4958C1.77205 12.6989 1.50629 12.8004 1.23982 12.8004C0.973481 12.8004 0.707684 12.6988 0.504578 12.4957C0.0984741 12.0896 0.0984741 11.4313 0.504578 11.0252L4.88816 6.64158L5.02958 6.50015L4.88816 6.35873L0.504578 1.97515C0.0984741 1.56905 0.0984741 0.910681 0.504578 0.504578C0.910688 0.0984675 1.56913 0.0984848 1.97514 0.504566L1.97515 0.504578L6.35873 4.88816L6.50016 5.02958L6.64158 4.88816L11.0252 0.504578C11.4313 0.0984675 12.0897 0.0984848 12.4957 0.504566Z" fill="#740F13" stroke="white" stroke-width="0.4"/>
</g>
</g>
</svg>
