<svg width="26" height="14" viewBox="0 0 26 14" fill="none" xmlns="http://www.w3.org/2000/svg">
<g id="Group">
<g id="Group_2">
<path id="Vector" d="M1.19351 6.55848L2.55456 7.91953C8.16498 13.53 17.2923 13.53 22.9027 7.91953L24.2586 6.55848L22.8975 5.19743C17.2871 -0.412989 8.15979 -0.412989 2.54937 5.19743L1.19351 6.55848V6.55848ZM12.7261 13.1144C8.78836 13.1144 4.85068 11.6131 1.85326 8.61564L0.144157 6.90654C-0.0480522 6.71433 -0.0480522 6.40264 0.144157 6.20523L1.85326 4.49613C7.8481 -1.49871 17.604 -1.49871 23.5988 4.49613L25.3079 6.20523C25.5002 6.39744 25.5002 6.70913 25.3079 6.90654L23.5988 8.61564C20.6014 11.6131 16.6637 13.1144 12.7261 13.1144V13.1144Z" fill="#740F13"/>
<path id="Vector_2" d="M12.7259 2.79219C10.648 2.79219 8.95968 4.48052 8.95968 6.55845C8.95968 8.63639 10.648 10.3247 12.7259 10.3247C14.8039 10.3247 16.4922 8.63639 16.4922 6.55845C16.4922 4.48052 14.8039 2.79219 12.7259 2.79219ZM12.7259 11.3117C10.1025 11.3117 7.97266 9.17665 7.97266 6.55845C7.97266 3.93506 10.1077 1.80518 12.7259 1.80518C15.3441 1.80518 17.4792 3.94025 17.4792 6.55845C17.4792 9.18184 15.3493 11.3117 12.7259 11.3117Z" fill="#740F13"/>
</g>
</g>
</svg>
