<svg width="23" height="23" viewBox="0 0 23 23" fill="none" xmlns="http://www.w3.org/2000/svg">
<g id="Group 501">
<path id="Vector" d="M11.3563 2.04698C14.3885 2.04698 14.7481 2.05833 15.9462 2.11322C19.0237 2.25328 20.4613 3.71352 20.6013 6.76837C20.6562 7.96552 20.6666 8.32513 20.6666 11.3573C20.6666 14.3904 20.6553 14.749 20.6013 15.9462C20.4603 18.9982 19.0266 20.4613 15.9462 20.6013C14.7481 20.6562 14.3904 20.6676 11.3563 20.6676C8.32419 20.6676 7.96457 20.6562 6.76742 20.6013C3.68229 20.4603 2.25234 18.9935 2.11228 15.9452C2.05739 14.7481 2.04603 14.3894 2.04603 11.3563C2.04603 8.32419 2.05833 7.96552 2.11228 6.76742C2.25328 3.71352 3.68702 2.25234 6.76742 2.11228C7.96552 2.05833 8.32419 2.04698 11.3563 2.04698ZM11.3563 0C8.27214 0 7.88602 0.013249 6.67468 0.068138C2.55044 0.25741 0.258356 2.54571 0.0690843 6.67373C0.013249 7.88602 0 8.27214 0 11.3563C0 14.4405 0.013249 14.8276 0.068138 16.0389C0.25741 20.1632 2.54571 22.4552 6.67373 22.6445C7.88602 22.6994 8.27214 22.7127 11.3563 22.7127C14.4405 22.7127 14.8276 22.6994 16.0389 22.6445C20.1594 22.4552 22.4571 20.1669 22.6436 16.0389C22.6994 14.8276 22.7127 14.4405 22.7127 11.3563C22.7127 8.27214 22.6994 7.88602 22.6445 6.67468C22.459 2.55423 20.1679 0.258356 16.0399 0.0690843C14.8276 0.013249 14.4405 0 11.3563 0ZM11.3563 5.52485C8.13586 5.52485 5.52485 8.13586 5.52485 11.3563C5.52485 14.5768 8.13586 17.1887 11.3563 17.1887C14.5768 17.1887 17.1878 14.5777 17.1878 11.3563C17.1878 8.13586 14.5768 5.52485 11.3563 5.52485ZM11.3563 15.1418C9.26582 15.1418 7.57088 13.4478 7.57088 11.3563C7.57088 9.26582 9.26582 7.57088 11.3563 7.57088C13.4468 7.57088 15.1418 9.26582 15.1418 11.3563C15.1418 13.4478 13.4468 15.1418 11.3563 15.1418ZM17.4187 3.93213C16.6654 3.93213 16.055 4.54253 16.055 5.29489C16.055 6.04724 16.6654 6.65765 17.4187 6.65765C18.1711 6.65765 18.7805 6.04724 18.7805 5.29489C18.7805 4.54253 18.1711 3.93213 17.4187 3.93213Z" fill="#740F13"/>
</g>
</svg>
