<svg width="33" height="28" viewBox="0 0 33 28" fill="none" xmlns="http://www.w3.org/2000/svg">
<path d="M13.4649 5.45287C14.2437 5.12626 14.5703 4.19667 14.2186 3.44295L12.9875 0.855177C12.6358 0.126831 11.7816 -0.200032 11.0279 0.126831C8.89232 1.0313 7.05826 2.21213 5.60107 3.6442C3.81726 5.32725 2.61131 7.2618 1.95809 9.39735C1.30486 11.5583 0.953125 14.4975 0.953125 18.241L0.953125 25.9541C0.953125 26.7832 1.63147 27.4615 2.46057 27.4615H12.3343C13.1634 27.4615 13.8418 26.7832 13.8418 25.9541V16.0803C13.8418 15.251 13.1634 14.5729 12.3343 14.5729L7.61099 14.5729C7.66124 12.0351 8.26422 10.0003 9.36968 8.46751C10.2741 7.23693 11.6308 6.23197 13.4649 5.45287Z" fill="#740F13"/>
<path d="M31.2044 5.45279C31.9833 5.12617 32.3096 4.19658 31.9581 3.44286L30.7271 0.880463C30.3753 0.151866 29.5211 -0.174747 28.7674 0.151866C26.657 1.05633 24.8478 2.23716 23.3657 3.64411C21.5817 5.35254 20.3508 7.28709 19.6974 9.42263C19.0441 11.5328 18.7178 14.4726 18.7178 18.2412V25.9542C18.7178 26.7833 19.3961 27.4617 20.2252 27.4617H30.099C30.9281 27.4617 31.6064 26.7833 31.6064 25.9542V16.0805C31.6064 15.2512 30.9281 14.5731 30.099 14.5731L25.3505 14.5731C25.4008 12.0353 26.004 10.0005 27.1092 8.46767C28.0137 7.23684 29.3704 6.23188 31.2044 5.45279Z" fill="#740F13"/>
</svg>
