<svg width="30" height="25" viewBox="0 0 30 25" fill="none" xmlns="http://www.w3.org/2000/svg">
<path d="M11.8198 23.8746L11.8179 23.8765C11.7354 23.959 11.6296 24 11.5305 24C11.4157 24 11.3115 23.9562 11.2322 23.8772C11.2319 23.877 11.2317 23.8768 11.2315 23.8765L1.12556 13.7102L1.12354 13.7082C1.04718 13.6318 1 13.5169 1 13.4088C1 13.2938 1.04391 13.1894 1.12291 13.11C1.12312 13.1098 1.12333 13.1096 1.12354 13.1094L6.30315 7.95165L6.30473 7.95007C6.38722 7.86756 6.49296 7.8266 6.59214 7.8266C6.70684 7.8266 6.81105 7.87038 6.89034 7.94931C6.8906 7.94956 6.89085 7.94981 6.89111 7.95007L10.8443 11.9274L11.5496 12.637L12.2589 11.9314L23.1266 1.1188C23.2917 0.959165 23.5529 0.959745 23.718 1.12455C23.7182 1.12468 23.7183 1.1248 23.7184 1.12493L28.8749 6.30583L28.8765 6.30741C28.9528 6.38379 29 6.49874 29 6.60681C29 6.72181 28.9561 6.82619 28.8771 6.90553C28.8769 6.90575 28.8767 6.90598 28.8765 6.90621L11.8198 23.8746Z" fill="white" stroke="#740F13" stroke-width="2"/>
</svg>
