<svg width="13" height="13" viewBox="0 0 13 13" fill="none" xmlns="http://www.w3.org/2000/svg">
<path fill-rule="evenodd" clip-rule="evenodd" d="M11.8552 0.250806C12.3892 0.693987 12.4014 1.1506 11.9441 3.73358C11.8603 4.20746 11.7619 4.88533 11.7261 5.24026C11.6902 5.59519 11.593 6.22511 11.5105 6.63951C11.4287 7.05391 11.3085 7.77976 11.2439 8.25363C10.7271 12.0453 10.4566 12.2538 7.71377 10.9767C6.73532 10.5207 6.52428 10.5648 5.93337 11.3482C4.61023 13.103 3.3894 12.6413 3.3894 10.3858C3.3894 9.3715 3.24104 9.01849 2.76524 8.90337C2.60537 8.86436 2.28114 8.74541 2.04452 8.63798C0.999558 8.16602 0.822414 8.09248 0.729685 8.09248C0.414406 8.09248 0 7.41715 0 6.90363C0 6.17459 0.0313413 6.15029 3.65864 4.0674C5.37508 3.08192 6.85235 2.22689 6.94124 2.1687C7.02949 2.10986 7.22327 2.00115 7.37163 1.9276C7.51936 1.85406 7.84871 1.65965 8.10323 1.49465C8.35776 1.3303 8.67239 1.14676 8.80285 1.08665C8.93267 1.02717 9.23325 0.861539 9.46987 0.719568C10.7873 -0.0734239 11.3347 -0.181502 11.8552 0.250806ZM6.9502 3.57818C4.91336 4.76127 3.13744 5.78896 3.00378 5.86187C2.74222 6.00384 1.52971 6.71049 1.47087 6.75526C1.39413 6.81346 1.68255 7.23106 1.79894 7.23106C1.86673 7.23106 2.11934 7.32187 2.36044 7.4325C3.61004 8.00678 3.73154 7.99783 4.51942 7.27198C4.81551 6.99955 5.69292 6.22894 6.46929 5.56002C7.24629 4.89045 8.09364 4.14606 8.35264 3.90497C8.9007 3.39656 9.27162 3.3326 9.37138 3.73102C9.44492 4.02455 9.27033 4.33536 8.17869 5.85035C7.82312 6.34342 7.51296 6.79491 7.48802 6.85374C7.43814 6.97461 6.79799 7.9019 6.49359 8.2952C6.19685 8.6789 6.2365 9.04151 6.59143 9.18476C6.75387 9.25063 7.03269 9.3651 7.20983 9.44056C7.38762 9.51538 7.79946 9.68357 8.12497 9.81403C8.45048 9.94449 8.87001 10.1242 9.05738 10.2137C9.67131 10.5066 9.73526 10.3615 10.0633 7.93068C10.1273 7.45744 10.2501 6.71753 10.3358 6.2865C10.4221 5.85547 10.4924 5.36305 10.4924 5.19166C10.4924 5.01963 10.5852 4.40378 10.6996 3.82247C11.0053 2.25951 11.0156 1.41088 10.7278 1.42303C10.6869 1.42495 8.98704 2.39445 6.9502 3.57818ZM4.6454 10.0468C4.58401 10.2802 4.7279 10.6748 4.87435 10.6748C5.06364 10.6748 5.22288 10.2374 5.11033 10.027C4.96005 9.74561 4.72151 9.75584 4.6454 10.0468Z" fill="white"/>
</svg>
