<svg width="105" height="105" viewBox="0 0 105 105" fill="none" xmlns="http://www.w3.org/2000/svg">
<path fill-rule="evenodd" clip-rule="evenodd" d="M64.0777 0.129371C62.0558 0.336441 60.3498 1.77237 59.7748 3.7504C59.3051 5.36672 59.3662 40.4159 59.8417 41.955C60.3362 43.5573 61.6376 44.8277 63.2148 45.2482C64.919 45.7021 98.4035 45.8206 100.504 45.3798C102.972 44.8621 104.43 43.5256 104.83 41.4147C105.045 40.2803 105.062 5.76685 104.848 4.29701C104.499 1.90213 102.702 0.372609 99.9467 0.126656C98.0391 -0.0437933 65.7421 -0.0415307 64.0777 0.129371ZM74.8574 4.07999C75.0884 4.41049 75.1214 5.60409 75.1214 13.641V22.8249L75.6114 23.5971C76.4599 24.9358 77.552 24.8255 79.6603 23.1884C79.9912 22.9316 80.3171 22.7213 80.3849 22.7213C80.4522 22.7213 80.8048 22.4853 81.1678 22.1969C81.939 21.5834 82.6311 21.5983 83.4257 22.2448C83.8945 22.6264 84.5093 23.0238 85.5164 23.5971C85.7885 23.7522 86.1393 23.99 86.2962 24.1265C87.0497 24.7798 88.2548 24.599 88.8312 23.7458L89.2132 23.1807V13.8345V4.48871L89.5825 4.09581L89.9513 3.70247L94.888 3.70292C100.482 3.70338 100.802 3.76351 101.201 4.89155C101.479 5.67643 101.532 39.4398 101.257 40.43C101.133 40.8753 100.865 41.2275 100.383 41.5761L99.6886 42.0797H82.391C63.4693 42.0797 64.4176 42.1304 63.5262 41.0711L63.0674 40.5254V22.8696C63.0674 2.81315 62.9436 4.35759 64.5953 3.81324C65.5966 3.48364 74.6034 3.71739 74.8574 4.07999ZM85.4007 4.11933L85.8175 4.53618V11.5002C85.8175 18.2114 85.8057 18.4705 85.4893 18.6401C84.9948 18.9045 84.7294 18.8566 84.205 18.4063C83.1599 17.5075 81.3925 17.4627 80.4694 18.3114C79.8592 18.8724 79.1549 19.051 78.904 18.7083C78.6066 18.3014 78.5881 4.78485 78.8841 4.13515L79.0808 3.70247H82.0326C84.9401 3.70247 84.9902 3.7088 85.4007 4.11933ZM11.7094 17.5527C11.6158 17.5907 10.7755 17.7322 9.84161 17.8678C8.15371 18.1124 7.89604 18.2142 5.51111 19.58C4.88956 19.9358 3.32506 21.4283 2.66238 22.2973C2.01959 23.1409 1.27418 24.3237 1.27101 24.5059C1.26921 24.5999 1.06941 25.0498 0.826663 25.5055C-1.55647 29.9833 1.49703 38.2467 6.35506 40.4657C6.67826 40.6135 7.06837 40.8477 7.22206 40.987C7.3753 41.1258 8.1424 41.3514 8.92578 41.4888C9.70961 41.6258 10.6182 41.8311 10.945 41.9441C11.3844 42.0965 15.3072 42.1742 25.9734 42.2425L40.4073 42.3343L41.183 42.8484C43.3844 44.3073 43.6579 45.1872 43.77 51.1646C43.8613 56.0371 44.0268 57.2701 44.7048 58.1318C44.906 58.3877 45.0705 58.6617 45.0705 58.7408C45.0705 59.4832 47.2132 61.3943 49.0606 62.2994L50.2491 62.8813L64.7653 62.9708L79.281 63.0599L80.375 63.4646C83.9939 64.8024 85.0535 68.9845 82.4674 71.7216C80.7958 73.4912 80.7791 73.493 65.1454 73.4939C51.2738 73.4948 49.882 73.5744 48.6271 74.438C48.2949 74.6663 47.9197 74.853 47.7927 74.853C47.4446 74.853 45.4543 76.987 45.0479 77.7954C44.8517 78.1851 44.5927 78.6187 44.4716 78.7589C43.5856 79.7847 43.7479 84.9339 44.7048 86.1506C44.906 86.4065 45.0705 86.6841 45.0705 86.7677C45.0705 87.4825 47.2534 89.423 49.0606 90.3141L50.2491 90.9001L73.5935 90.9937L96.938 91.0873L97.9569 91.4648C101.438 92.7551 102.44 97.2474 99.8283 99.8593C98.3158 101.372 101.73 101.236 62.7275 101.338L28.008 101.429L27.2893 101.812C26.3273 102.327 26.0566 103.795 26.7889 104.527C27.2373 104.975 29.0301 104.994 63.8314 104.909L98.8058 104.824L99.9092 104.237C101.789 103.235 102.814 102.261 103.819 100.52C103.962 100.273 104.212 99.8711 104.374 99.6283C105.177 98.4252 105.094 93.979 104.245 92.7289C104.008 92.3803 103.814 92.0241 103.814 91.9377C103.814 91.6153 102.475 90.0216 101.757 89.4886C98.8085 87.3026 100.354 87.4192 74.3651 87.4192C50.5971 87.4192 50.7847 87.4269 49.5036 86.3929C48.4947 85.5782 47.9889 84.8042 47.5988 83.4781L47.229 82.2207L47.62 80.9566C48.1611 79.2074 49.2369 78.078 50.928 77.4848L52.1164 77.0679L65.1047 77.0598C78.0402 77.0521 81.0196 76.949 81.8829 76.4811C82.1329 76.3459 82.5741 76.1239 82.8643 75.9878C84.135 75.391 86.1497 73.4894 86.1551 72.8809C86.1565 72.7769 86.3188 72.4862 86.5158 72.2352C87.6916 70.7405 87.7549 65.6551 86.6139 64.3516C86.4788 64.197 86.2419 63.8213 86.0878 63.517C85.6796 62.7109 84.0884 61.2098 82.9687 60.5737C81.1787 59.5569 80.8799 59.5365 65.5292 59.4068C49.6108 59.2721 50.4823 59.3521 49.0177 57.8872C47.4537 56.3224 47.2796 55.5742 47.2715 50.3884C47.2647 45.897 47.0843 44.3589 46.461 43.4831C46.2567 43.196 46.0894 42.9067 46.0894 42.8402C46.0894 42.7168 45.3865 41.8288 44.6813 41.0611C43.8663 40.1736 42.8999 39.5755 41.5053 39.0953L40.0624 38.5989L25.6312 38.5062L11.2 38.4135L9.65718 37.8949C5.99343 36.6638 3.80196 33.6667 3.77755 29.8535C3.75269 25.9979 6.51101 22.2123 9.72272 21.695C10.2796 21.6051 11.0598 21.4174 11.4558 21.2777C12.081 21.0571 14.9722 21.0232 33.267 21.0232C56.0374 21.0232 55.1672 21.0598 55.7756 20.0746C56.385 19.089 56.0098 18.2639 54.7048 17.7186C54.1189 17.4736 12.3029 17.3126 11.7094 17.5527ZM15.8469 54.4683C15.4148 54.5469 14.9134 54.6907 14.7331 54.7875C14.5523 54.8842 13.8778 55.0854 13.2337 55.2346C12.5895 55.3843 11.94 55.6176 11.7899 55.7532C11.6398 55.8893 11.2547 56.0991 10.9342 56.2198C9.07902 56.9179 6.10734 59.1739 4.86469 60.8278C0.841128 66.1823 -0.244207 69.4253 0.233594 74.6636C0.340275 75.8327 0.556798 77.0607 0.738065 77.5237C0.913002 77.9695 1.11235 78.6015 1.18106 78.9284C1.29995 79.4908 2.03134 81.2283 2.53988 82.1552C2.66826 82.3885 2.93405 82.9206 3.13069 83.3375C3.32687 83.7543 3.59041 84.2128 3.71607 84.3566C3.84174 84.4999 3.99905 84.7969 4.06595 85.0166C4.1333 85.2368 4.35254 85.67 4.55324 85.9797C4.75395 86.2894 5.14722 86.9382 5.42748 87.4219C5.70774 87.9052 6.1087 88.5147 6.31889 88.776C6.52909 89.0374 6.70267 89.3168 6.70539 89.3963C6.7081 89.4764 7.05436 90.0383 7.47475 90.6455C7.89559 91.2527 8.65637 92.3604 9.16627 93.1078C9.67571 93.8551 10.3208 94.772 10.5992 95.1455C10.8777 95.5189 11.2379 96.0158 11.3998 96.2491C11.5616 96.4829 11.8889 96.9183 12.1262 97.2171C12.364 97.516 12.689 97.9364 12.849 98.1512C13.009 98.3659 13.5822 99.0889 14.1224 99.7576C14.6626 100.426 15.6394 101.637 16.2931 102.449C19.1644 106.014 19.5549 105.962 23.1437 101.535C25.0585 99.173 25.5634 98.5269 26.4801 97.2682C26.7179 96.9413 27.1211 96.3974 27.3756 96.0592C27.9248 95.3295 29.6471 92.9613 30.4332 91.855C30.7397 91.4232 31.1026 90.8409 31.2401 90.5606C31.3775 90.2802 31.7201 89.7454 32.0022 89.3719C32.2838 88.9985 32.7074 88.3488 32.9433 87.9288C33.1793 87.5083 33.6264 86.7442 33.9364 86.2306C34.4929 85.3092 36.2979 81.7655 37.1369 79.9475C37.3737 79.4339 37.6187 78.7462 37.6811 78.4193C37.743 78.0924 37.9605 77.3284 38.1643 76.7212C38.6738 75.2007 38.709 70.0822 38.2172 68.9949C38.0482 68.621 37.7986 67.8976 37.6626 67.3867C37.527 66.8754 37.3141 66.3405 37.1897 66.1976C37.0659 66.0552 36.8729 65.6528 36.7608 65.3038C36.6487 64.9548 36.485 64.6247 36.3973 64.5704C36.3092 64.5162 36.075 64.1522 35.877 63.7616C35.6791 63.371 35.3364 62.8221 35.1163 62.5418C34.8961 62.2619 34.5684 61.8415 34.3885 61.6082C33.0324 59.8481 32.329 59.1522 30.4698 57.7321C29.8085 57.2271 26.0932 55.3255 25.7596 55.3214C25.5955 55.3196 24.9265 55.1211 24.2728 54.8806C22.9791 54.405 17.6293 54.1432 15.8469 54.4683ZM23.6043 58.5247C24.0654 58.7173 24.7863 58.9619 25.2067 59.0686C25.6267 59.1749 26.085 59.3643 26.2252 59.4891C26.3653 59.6139 26.8237 59.8752 27.2441 60.07C29.1381 60.949 31.4254 63.2593 32.7729 65.6546C32.9659 65.9973 33.29 66.5453 33.4939 66.8722C33.6973 67.1991 33.8646 67.5666 33.8646 67.6892C33.865 67.8117 34.0757 68.3465 34.3324 68.8778C34.9354 70.1252 35.0331 74.8295 34.4848 76.2116C34.318 76.6321 34.0413 77.4726 33.8704 78.0798C33.6991 78.6865 33.3985 79.4859 33.2028 79.8562C33.0071 80.226 32.8466 80.6551 32.8466 80.8097C32.8466 80.9639 32.7051 81.2727 32.532 81.4956C32.3588 81.718 32.1265 82.1778 32.0162 82.5164C31.9055 82.8555 31.6654 83.2683 31.4819 83.4342C31.2988 83.6002 31.1487 83.8267 31.1487 83.937C31.1487 84.1038 29.2773 87.1032 28.8171 87.6738C28.5387 88.0192 27.3028 89.8901 27.1907 90.136C27.1265 90.2762 26.8074 90.7346 26.481 91.1551C26.1547 91.5751 25.6986 92.1864 25.468 92.5133C25.2375 92.8401 24.8189 93.4134 24.5382 93.7869C24.2575 94.1608 23.8927 94.6572 23.7277 94.891C22.57 96.5276 19.5947 100.155 19.4098 100.155C19.2467 100.155 18.2685 99.1766 17.7057 98.45C17.4552 98.1268 16.8436 97.3586 16.3473 96.7424C15.8505 96.1261 15.2154 95.2974 14.9351 94.9005C14.6549 94.5035 14.23 93.9379 13.9904 93.6431C13.7508 93.3488 13.1781 92.5463 12.717 91.8599C12.2559 91.1741 11.6882 90.3426 11.4545 90.0121C11.2212 89.6821 10.8392 89.1242 10.6055 88.772C9.97179 87.8162 9.00986 86.3784 8.64055 85.8345C8.23507 85.2373 7.51905 84.012 6.98746 83.0043C6.76551 82.5838 6.46264 82.0105 6.31392 81.7306C5.72673 80.6225 5.17705 79.3159 4.99217 78.5889C4.88504 78.1689 4.69518 77.6263 4.56952 77.3835C3.63199 75.5683 3.58589 70.4557 4.48951 68.4854C5.44104 66.4097 6.01603 65.3079 6.43913 64.7495C7.2302 63.7046 8.76893 61.9694 9.26707 61.5598C10.4609 60.5778 11.1683 60.0795 11.3695 60.0795C11.4834 60.0795 11.8577 59.8892 12.2012 59.6559C12.5443 59.4231 13.1853 59.1446 13.6256 59.0369C14.0654 58.9293 14.6549 58.7259 14.9351 58.5848C16.2194 57.9378 22.1004 57.8972 23.6043 58.5247ZM18.5853 64.7793C15.3492 65.4313 13.7761 66.369 12.0299 68.6888C9.63051 71.8763 10.2055 76.864 13.3223 79.8928C15.1354 81.6556 18.8556 82.7402 20.8288 82.0824C21.2288 81.949 21.9932 81.7275 22.5271 81.5905C24.4595 81.0941 26.9145 78.6074 27.5849 76.4662C27.702 76.0927 27.8643 75.703 27.9452 75.5999C28.9998 74.263 27.6979 69.6229 25.647 67.4089C24.1716 65.816 20.4039 64.4131 18.5853 64.7793ZM21.8865 69.0853C22.7242 69.6563 23.6644 70.5728 23.6734 70.8269C23.6766 70.901 23.8439 71.185 24.0459 71.458C24.9934 72.7398 24.4912 75.6008 23.0677 77.0358C20.9346 79.1857 16.8278 79.0374 15.4138 76.7587C15.2561 76.5046 14.9808 76.1307 14.8018 75.9281C14.399 75.471 14.183 73.8249 14.3574 72.5391C14.804 69.2476 19.1807 67.2402 21.8865 69.0853Z" fill="#740F13" fill-opacity="0.18"/>
</svg>
