<svg width="32" height="28" viewBox="0 0 32 28" fill="none" xmlns="http://www.w3.org/2000/svg">
<path d="M12.2217 4.76123L12.2217 4.76122L12.2185 4.76258C10.295 5.57966 8.81601 6.65763 7.81223 8.02333L7.8122 8.02331L7.80824 8.0288C6.59073 9.71699 5.9604 11.9124 5.90802 14.5581L5.89287 15.3229H6.65787L11.3812 15.3229C11.7961 15.3229 12.1386 15.6653 12.1386 16.0803V25.9541C12.1386 26.369 11.7961 26.7115 11.3812 26.7115H1.50744C1.09256 26.7115 0.75 26.369 0.75 25.9541L0.75 18.241C0.75 14.5357 1.09917 11.6783 1.72251 9.61556C2.33565 7.61181 3.46843 5.78824 5.16265 4.18971L5.1682 4.18447L5.17364 4.17912C6.55355 2.823 8.30455 1.69105 10.3672 0.817445L10.3672 0.81747L10.3731 0.814914C10.7535 0.649976 11.1793 0.811169 11.3582 1.17969C11.3585 1.18024 11.3588 1.18078 11.359 1.18133L12.5868 3.7622C12.7669 4.15112 12.5856 4.60862 12.2217 4.76123Z" stroke="#740F13" stroke-width="1.5"/>
<path d="M29.9622 4.76114L29.9622 4.76113L29.959 4.76249C28.0355 5.57957 26.5565 6.65755 25.5527 8.02355L25.5527 8.02354L25.5487 8.02903C24.3315 9.71714 23.7009 11.9125 23.6485 14.5582L23.6334 15.3231H24.3984L29.1468 15.3231C29.5618 15.3231 29.9043 15.6655 29.9043 16.0805V25.9542C29.9043 26.3691 29.5617 26.7117 29.1468 26.7117H19.2731C18.8582 26.7117 18.5156 26.3691 18.5156 25.9542V18.2412C18.5156 14.5026 18.8409 11.6496 19.4617 9.64442L19.4624 9.64209C20.0741 7.64296 21.2297 5.81655 22.9312 4.18688C24.3434 2.84652 26.0757 1.71335 28.1107 0.84123L28.1134 0.840032C28.4944 0.674933 28.9207 0.836704 29.0993 1.20607C29.0994 1.20622 29.0994 1.20637 29.0995 1.20652L30.3278 3.76313C30.507 4.15209 30.3256 4.60878 29.9622 4.76114Z" stroke="#740F13" stroke-width="1.5"/>
</svg>
