<svg width="23" height="16" viewBox="0 0 23 16" fill="none" xmlns="http://www.w3.org/2000/svg">
<g id="Group 498">
<path id="Vector" d="M21.2764 0H1.72244C0.771135 0 0 0.771135 0 1.72244V13.3458C0 14.2971 0.771135 15.0682 1.72244 15.0682H21.2764C22.2277 15.0682 22.9989 14.2971 22.9989 13.3458V1.72244C22.9989 0.771135 22.2277 0 21.2764 0Z" fill="#41479B"/>
<path id="Vector_2" d="M22.975 1.43774C22.8393 0.622047 22.1306 0 21.2764 0H20.8282L13.4821 4.813V4.4895e-05H9.51676V4.81305L2.17061 4.4895e-05H1.72244C0.868207 4.4895e-05 0.159599 0.622047 0.0238523 1.43779L6.30263 5.55153H0V9.51685H6.30263L0.0238523 13.6305C0.159599 14.4462 0.868207 15.0682 1.72244 15.0682H2.17061L9.51676 10.2552V15.0682H13.4821V10.2552L20.8282 15.0682H21.2764C22.1306 15.0682 22.8393 14.4462 22.975 13.6305L16.6962 9.51676H22.9989V5.55144H16.6962L22.975 1.43774Z" fill="#F5F5F5"/>
<g id="Group">
<path id="Vector_3" d="M12.689 0H10.3098V6.34449H0V8.72371H10.3098V15.0682H12.689V8.72371H22.9989V6.34449H12.689V0Z" fill="#FF4B55"/>
<path id="Vector_4" d="M1.11342 14.9572L9.49466 9.51685H8.038L0.414062 14.4657C0.600614 14.6835 0.84035 14.8541 1.11342 14.9572Z" fill="#FF4B55"/>
<path id="Vector_5" d="M15.5582 9.51685H14.1016L22.2193 14.7861C22.4464 14.637 22.636 14.4355 22.7712 14.1988L15.5582 9.51685Z" fill="#FF4B55"/>
<path id="Vector_6" d="M0.183594 0.952233L7.26877 5.55142H8.72542L0.696846 0.339844C0.481276 0.500297 0.304877 0.710071 0.183594 0.952233Z" fill="#FF4B55"/>
<path id="Vector_7" d="M14.941 5.55154L22.5789 0.59354C22.3903 0.376533 22.1487 0.206917 21.8737 0.105713L13.4844 5.55154H14.941Z" fill="#FF4B55"/>
</g>
</g>
</svg>
