<svg width="68" height="47" viewBox="0 0 68 47" fill="none" xmlns="http://www.w3.org/2000/svg">
<rect x="16" y="10" width="33" height="27" fill="white"/>
<path d="M65.3496 4.03457C62.895 1.16885 58.3631 0 49.7083 0H18.2911C9.43819 0 4.82946 1.24438 2.38412 4.29532C0 7.26982 0 11.6528 0 17.7191V29.2811C0 41.0331 2.82877 47 18.2911 47H49.7084C57.2139 47 61.3728 45.9685 64.0634 43.4396C66.8227 40.8462 68 36.6118 68 29.2811V17.7191C68 11.3217 67.8155 6.91294 65.3496 4.03457ZM43.6563 25.0962L29.3898 32.419C29.0709 32.5827 28.722 32.664 28.3738 32.664C27.9793 32.664 27.5858 32.5598 27.2373 32.3525C26.581 31.962 26.1803 31.2632 26.1803 30.5097V15.9111C26.1803 15.1588 26.5799 14.4607 27.2349 14.0699C27.8901 13.6791 28.705 13.6524 29.3848 13.9992L43.6512 21.2748C44.377 21.6448 44.8329 22.3808 44.8339 23.1838C44.8348 23.9875 44.381 24.7245 43.6563 25.0962Z" fill="#E63223"/>
</svg>
