<svg width="129" height="140" viewBox="0 0 129 140" fill="none" xmlns="http://www.w3.org/2000/svg">
<path d="M95.78 50.5225L95.78 50.5225C96.8893 51.8173 97.5162 53.488 97.8586 55.6733C98.2026 57.8688 98.25 60.5139 98.25 63.7191V75.2811C98.25 82.5772 97.0671 86.5272 94.5498 88.8931L95.0634 89.4396L94.5498 88.8931C92.0852 91.2095 88.1912 92.25 80.7084 92.25H49.2911C41.6171 92.25 37.3261 90.7614 34.907 88.0484C32.4701 85.3155 31.75 81.1482 31.75 75.2811V63.7191C31.75 60.6701 31.7514 58.1131 32.0414 55.9473C32.3298 53.793 32.8955 52.1042 33.9693 50.7644L33.9693 50.7644C36.1699 48.0189 40.4241 46.75 49.2911 46.75H80.7083C89.378 46.75 93.5704 47.9428 95.78 50.5225Z" stroke="#740F13" stroke-width="1.5"/>
<path d="M75.125 67.0514C76.625 67.9175 76.625 70.0825 75.125 70.9486L60.125 79.6088C58.625 80.4748 56.75 79.3923 56.75 77.6603L56.75 60.3397C56.75 58.6077 58.625 57.5252 60.125 58.3912L75.125 67.0514Z" stroke="#740F13" stroke-width="1.5"/>
<circle cx="64.5" cy="69.5" r="63.75" stroke="#89383B" stroke-width="1.5"/>
<rect x="114.547" y="0.687988" width="1.5" height="167.82" transform="rotate(34.4436 114.547 0.687988)" fill="#740F13"/>
</svg>
