<svg width="20" height="19" viewBox="0 0 20 19" fill="none" xmlns="http://www.w3.org/2000/svg">
<path fill-rule="evenodd" clip-rule="evenodd" d="M18.6017 0.924324C18.5356 0.920306 18.4695 0.930271 18.4076 0.953565L0.58947 7.66712C0.49756 7.70175 0.418803 7.76429 0.364254 7.84597C0.309706 7.92764 0.282106 8.02435 0.285329 8.12251C0.288553 8.22067 0.322437 8.31537 0.382226 8.39329C0.442015 8.47121 0.524706 8.52845 0.618689 8.55697L7.78036 10.7328L8.90505 18.1331C8.91984 18.2301 8.96465 18.3201 9.03318 18.3904C9.10171 18.4607 9.19053 18.5078 9.28718 18.5251C9.38383 18.5423 9.48346 18.5289 9.57208 18.4867C9.66071 18.4444 9.7339 18.3755 9.78137 18.2896L18.9848 1.62055C19.023 1.5511 19.0431 1.47312 19.0431 1.39385C19.0431 1.31458 19.023 1.2366 18.9848 1.16715C18.9466 1.09771 18.8914 1.03905 18.8245 0.99664C18.7575 0.954228 18.6809 0.929438 18.6018 0.924574L18.6017 0.924324ZM17.5444 2.28388L9.62664 16.6239L8.66565 10.2982C8.6523 10.2105 8.61442 10.1284 8.55638 10.0613C8.49835 9.99426 8.42252 9.94498 8.33766 9.91917L2.2157 8.05955L17.5444 2.28388Z" fill="#740F13"/>
</svg>
