<svg width="28" height="20" viewBox="0 0 28 20" fill="none" xmlns="http://www.w3.org/2000/svg">
<path d="M14.1497 0.5C6.62303 0.5 0.758619 3.54763 0.758619 7.42643V12.5058C0.758619 12.966 0.83481 13.464 1.02079 13.9313C0.576908 14.3164 0.296875 14.8928 0.296875 15.5535V17.3543C0.296875 18.5087 1.22042 19.4323 2.3748 19.4323H5.37627H6.29982H14.1497C14.4212 19.4323 14.6902 19.4278 14.9571 19.42C14.9937 19.4278 15.0324 19.4323 15.0733 19.4323C15.118 19.4323 15.1626 19.4252 15.2056 19.412C15.9308 19.3841 16.6377 19.3272 17.3227 19.2443C17.3421 19.2463 17.3617 19.2476 17.382 19.2476C17.4297 19.2476 17.4772 19.2373 17.5228 19.2196C18.2805 19.1216 19.0102 18.9911 19.7067 18.831C19.7545 18.8288 19.8019 18.8172 19.8472 18.7977C24.4366 17.7091 27.5408 15.3276 27.5408 12.5059V7.42643C27.5408 3.54763 21.6764 0.5 14.1497 0.5ZM14.1497 1.42354C20.8915 1.42354 26.6173 4.19411 26.6173 7.42643C26.6173 10.6587 20.8915 13.4293 14.1497 13.4293C7.40799 13.4293 1.68216 10.6587 1.68216 7.42643C1.68216 4.19411 7.40799 1.42354 14.1497 1.42354ZM1.82069 13.4293C1.72832 13.1061 1.68216 12.829 1.68216 12.5058V10.0123C1.7912 10.1531 1.90906 10.2916 2.03481 10.4278C3.12556 11.63 4.86134 12.6329 7.02785 13.3241C7.13818 13.3598 7.24922 13.3951 7.36189 13.4293H6.29982H5.37627H2.3748L1.82069 13.4293ZM5.37627 18.5087H2.3748C1.72832 18.5087 1.22042 18.0008 1.22042 17.3081V15.5072C1.22042 14.8608 1.72837 14.3529 2.3748 14.3529H5.37627V18.5087ZM26.6173 12.5058C26.6173 12.8499 26.5518 13.1887 26.4277 13.5196C26.3481 13.4619 26.2519 13.4294 26.1555 13.4294C25.8784 13.4294 25.6938 13.6141 25.6938 13.8911V14.7194C25.4344 15.021 25.1251 15.3116 24.7702 15.5883V15.2764C24.7702 14.9993 24.5855 14.8147 24.3085 14.8147C24.0314 14.8147 23.8467 14.9993 23.8467 15.2764V16.2167C23.4238 16.47 22.9606 16.7075 22.4614 16.9262V16.1999C22.4614 15.9228 22.2768 15.7381 21.9997 15.7381C21.7226 15.7381 21.538 15.9228 21.538 16.1999V17.2951C21.0969 17.4554 20.6338 17.6017 20.1527 17.7335V17.1234C20.1527 16.8464 19.968 16.6617 19.6909 16.6617C19.4139 16.6617 19.2292 16.8464 19.2292 17.1234V17.9632C18.78 18.0635 18.3175 18.1512 17.8439 18.2253V17.5852C17.8439 17.3082 17.6592 17.1235 17.3822 17.1235C17.1051 17.1235 16.9204 17.3082 16.9204 17.5852V18.3508C16.4667 18.4031 16.0042 18.4425 15.5351 18.4691V17.5852C15.5351 17.3082 15.3504 17.1235 15.0734 17.1235C14.7963 17.1235 14.6116 17.3082 14.6116 17.5852V18.5039C14.4582 18.5068 14.3044 18.5087 14.1499 18.5087H13.2264V17.5852C13.2264 17.3081 13.0417 17.1234 12.7646 17.1234C12.4876 17.1234 12.3029 17.3081 12.3029 17.5852V18.5087H10.9176V17.5852C10.9176 17.3081 10.7329 17.1234 10.4558 17.1234C10.1788 17.1234 9.99409 17.3081 9.99409 17.5852V18.5087H8.60881V17.5852C8.60881 17.3081 8.42412 17.1234 8.14706 17.1234C7.87 17.1234 7.68532 17.3081 7.68532 17.5852V18.5087H6.30003V14.3529H14.1497C14.2543 14.3529 14.3584 14.3521 14.4623 14.3509C14.5011 14.3505 14.5399 14.3498 14.5786 14.3492C14.6405 14.3482 14.7023 14.3471 14.764 14.3457C14.8154 14.3445 14.8667 14.3433 14.9178 14.3419C14.955 14.3408 14.9921 14.3395 15.0292 14.3384C19.762 14.1871 23.7446 12.8216 25.8741 10.8238C25.8809 10.8175 25.8878 10.811 25.8946 10.8046C25.9192 10.7813 25.944 10.758 25.9682 10.7346C26.2106 10.5015 26.4278 10.2605 26.6173 10.0123V12.5058Z" fill="#740F13"/>
<path d="M14.1508 11.5825C18.5375 11.5825 22.0007 9.73544 22.0007 7.42661C22.0007 5.11778 18.5375 3.27075 14.1508 3.27075C9.764 3.27075 6.30078 5.11778 6.30078 7.42661C6.30078 9.73544 9.764 11.5825 14.1508 11.5825ZM14.1508 4.19429C17.891 4.19429 21.0772 5.67195 21.0772 7.42661C21.0772 9.18132 17.891 10.6589 14.1508 10.6589C10.4105 10.6589 7.22432 9.18132 7.22432 7.42661C7.22432 5.6719 10.4105 4.19429 14.1508 4.19429Z" fill="#740F13"/>
<path d="M14.148 9.73557C16.503 9.73557 18.3039 8.76588 18.3039 7.42675C18.3039 6.08762 16.503 5.11792 14.148 5.11792C11.7931 5.11792 9.99219 6.08762 9.99219 7.42675C9.99219 8.76588 11.7931 9.73557 14.148 9.73557ZM14.148 6.04146C15.9951 6.04146 17.3804 6.78026 17.3804 7.42675C17.3804 8.07323 15.9951 8.81203 14.148 8.81203C12.301 8.81203 10.9157 8.07323 10.9157 7.42675C10.9157 6.78026 12.301 6.04146 14.148 6.04146Z" fill="#740F13"/>
<path d="M1.67969 16.4306C1.67969 17.308 2.41849 18.0468 3.29587 18.0468C4.17326 18.0468 4.91206 17.308 4.91206 16.4306C4.91206 15.5533 4.17326 14.8145 3.29587 14.8145C2.41849 14.8145 1.67969 15.5533 1.67969 16.4306ZM3.29587 15.738C3.6653 15.738 3.98851 16.0612 3.98851 16.4306C3.98851 16.8001 3.6653 17.1233 3.29587 17.1233C2.92644 17.1233 2.60323 16.8001 2.60323 16.4306C2.60323 16.0612 2.92644 15.738 3.29587 15.738Z" fill="#740F13"/>
</svg>
