<svg width="28" height="28" viewBox="0 0 28 28" fill="none" xmlns="http://www.w3.org/2000/svg">
<path d="M6.98 0.5C5.30938 0.5 4.08805 0.715157 3.25063 1.445C2.4132 2.17484 2.12 3.32445 2.12 4.82V6.98H1.58C0.989375 6.98 0.5 7.46938 0.5 8.06V12.38C0.5 12.9706 0.989375 13.46 1.58 13.46H2.12V22.64C2.12 23.3002 2.32672 23.855 2.66 24.2769V25.88C2.66 26.768 3.39195 27.5 4.28 27.5H6.44C7.32805 27.5 8.06 26.768 8.06 25.88V25.34H19.94V25.88C19.94 26.768 20.672 27.5 21.56 27.5H23.72C24.608 27.5 25.34 26.768 25.34 25.88V24.2769C25.6733 23.855 25.88 23.3002 25.88 22.64V13.46H26.42C27.0106 13.46 27.5 12.9706 27.5 12.38V8.06C27.5 7.46938 27.0106 6.98 26.42 6.98H25.88V5.36C25.88 3.93195 25.7661 2.76336 25.1881 1.86688C24.6102 0.970391 23.5513 0.5 22.1 0.5H6.98ZM6.98 1.58H22.1C23.3488 1.58 23.9098 1.8732 24.2769 2.44063C24.6439 3.00805 24.8 4.00156 24.8 5.36V22.64C24.8 23.3888 24.5848 23.6841 24.1419 23.9225C23.6989 24.1609 22.9564 24.26 22.1 24.26H5.9C5.04359 24.26 4.30109 24.1609 3.85813 23.9225C3.41516 23.6841 3.2 23.3888 3.2 22.64V4.82C3.2 3.46156 3.4468 2.71906 3.95938 2.27188C4.47195 1.82469 5.41062 1.58 6.98 1.58ZM8.6 2.12C8.00938 2.12 7.52 2.60938 7.52 3.2V4.28C7.52 4.87063 8.00938 5.36 8.6 5.36H19.94C20.5306 5.36 21.02 4.87063 21.02 4.28V3.2C21.02 2.60938 20.5306 2.12 19.94 2.12H8.6ZM8.6 3.2H19.94V4.28H8.6V3.2ZM6.44 5.9C5.8093 5.9 5.23344 6.06031 4.83687 6.45688C4.44031 6.85344 4.28 7.4293 4.28 8.06V14.54C4.28 15.1707 4.44031 15.7466 4.83687 16.1431C5.23344 16.5397 5.8093 16.7 6.44 16.7L21.56 16.6663C22.0009 16.6663 22.4755 16.4975 22.91 16.16C23.3445 15.8225 23.72 15.2551 23.72 14.54V8.06C23.72 7.4293 23.5597 6.85344 23.1631 6.45688C22.7666 6.06031 22.1907 5.9 21.56 5.9H6.44ZM6.44 6.98H21.56C22.0093 6.98 22.2434 7.08969 22.3869 7.23313C22.5303 7.37656 22.64 7.6107 22.64 8.06V14.54C22.64 14.9049 22.486 15.118 22.2519 15.2994C22.0177 15.4808 21.6845 15.5863 21.56 15.5863L6.44 15.62C5.9907 15.62 5.75656 15.5103 5.61313 15.3669C5.46969 15.2234 5.36 14.9893 5.36 14.54V8.06C5.36 7.6107 5.46969 7.37656 5.61313 7.23313C5.75656 7.08969 5.9907 6.98 6.44 6.98ZM1.58 8.06H2.12V12.38H1.58V8.06ZM25.88 8.06H26.42V12.38H25.88V8.06ZM6.71 18.32C5.37477 18.32 4.28 19.4148 4.28 20.75C4.28 22.0852 5.37477 23.18 6.71 23.18C8.04523 23.18 9.14 22.0852 9.14 20.75C9.14 19.4148 8.04523 18.32 6.71 18.32ZM21.29 18.32C19.9548 18.32 18.86 19.4148 18.86 20.75C18.86 22.0852 19.9548 23.18 21.29 23.18C22.6252 23.18 23.72 22.0852 23.72 20.75C23.72 19.4148 22.6252 18.32 21.29 18.32ZM6.71 19.4C7.46094 19.4 8.06 19.9991 8.06 20.75C8.06 21.5009 7.46094 22.1 6.71 22.1C5.95906 22.1 5.36 21.5009 5.36 20.75C5.36 19.9991 5.95906 19.4 6.71 19.4ZM21.29 19.4C22.0409 19.4 22.64 19.9991 22.64 20.75C22.64 21.5009 22.0409 22.1 21.29 22.1C20.5391 22.1 19.94 21.5009 19.94 20.75C19.94 19.9991 20.5391 19.4 21.29 19.4ZM3.74 25.0363C4.38758 25.2809 5.12586 25.34 5.9 25.34H6.98V25.88C6.98 26.1838 6.74375 26.42 6.44 26.42H4.28C3.97625 26.42 3.74 26.1838 3.74 25.88V25.0363ZM24.26 25.0363V25.88C24.26 26.1838 24.0238 26.42 23.72 26.42H21.56C21.2563 26.42 21.02 26.1838 21.02 25.88V25.34H22.1C22.8741 25.34 23.6124 25.2809 24.26 25.0363Z" fill="#740F13"/>
</svg>
