<svg width="16" height="23" viewBox="0 0 16 23" fill="none" xmlns="http://www.w3.org/2000/svg">
<path fill-rule="evenodd" clip-rule="evenodd" d="M14.1176 23H1.88235C0.842824 23 0 22.1045 0 21V3.5C0 2.3955 0.842824 1.5 1.88235 1.5H3.29412C3.55435 1.5 3.76471 1.724 3.76471 2C3.76471 2.276 3.55435 2.5 3.29412 2.5H1.88235C1.36282 2.5 0.941176 2.948 0.941176 3.5V21C0.941176 21.552 1.36282 22 1.88235 22H14.1176C14.6372 22 15.0588 21.552 15.0588 21V3.5C15.0588 2.948 14.6372 2.5 14.1176 2.5H12.7059C12.4456 2.5 12.2353 2.276 12.2353 2C12.2353 1.724 12.4456 1.5 12.7059 1.5C12.7059 1.5 12.7059 1.5 12.7064 1.5H14.1176C15.1572 1.5 16 2.3955 16 3.5V21C16 22.1045 15.1572 23 14.1176 23ZM13.1765 4C13.1765 4.276 12.9661 4.5 12.7059 4.5H3.29412C3.03388 4.5 2.82353 4.276 2.82353 4C2.82353 3.724 3.03388 3.5 3.29412 3.5C3.29412 3.5 3.82353 3.4375 4.23529 3L5.17647 2C5.17647 2 5.544 1.5 6.11765 1.5H6.58824C6.58824 0.6715 7.22071 0 8 0C8.77977 0 9.41177 0.6715 9.41177 1.5H9.88235C10.4998 1.5 10.8235 2 10.8235 2L11.7647 3C12.1765 3.4375 12.7059 3.5 12.7059 3.5C12.9661 3.5 13.1765 3.724 13.1765 4ZM8 1C7.73976 1 7.52941 1.224 7.52941 1.5H8.47059C8.47059 1.224 8.26024 1 8 1ZM10.5238 3C10.5238 3 10.2042 2.5 9.66871 2.5H6.33176C5.79529 2.5 5.47623 3 5.47623 3L5.04847 3.5H10.952L10.5238 3Z" fill="white"/>
</svg>
